<svg width="28" height="28" viewBox="0 0 28 28" fill="none" xmlns="http://www.w3.org/2000/svg">
<path d="M12.9569 5.9211L12.9569 5.92111C13.5151 6.53877 14.4849 6.53877 15.0431 5.92111C16.1463 4.70039 17.6579 4.00001 19.25 4.00001C20.8421 4.00001 22.3537 4.70039 23.4569 5.92111L23.8279 5.58586L23.4569 5.92112C24.5581 7.13947 25.1667 8.77876 25.1667 10.4757C25.1667 12.1728 24.5581 13.8121 23.4569 15.0303L23.4569 15.0303L16.2257 23.0316L16.5967 23.3668L16.2257 23.0316C15.0346 24.3496 12.9654 24.3496 11.7743 23.0316L11.4033 23.3668L11.7743 23.0316L4.54311 15.0303L4.54308 15.0303C3.99733 14.4265 3.56751 13.7131 3.27529 12.9325C2.98307 12.152 2.83334 11.3173 2.83334 10.4757C2.83334 9.63418 2.98307 8.79955 3.27529 8.01897L3.27529 8.01897C3.56751 7.23835 3.99733 6.525 4.5431 5.92112L4.54311 5.92111C5.089 5.31708 5.74077 4.83391 6.46317 4.50281C7.18582 4.1716 7.96312 4 8.75003 4C9.53694 4 10.3142 4.1716 11.0369 4.50281C11.7593 4.83391 12.4111 5.31708 12.9569 5.9211Z" fill="white" fill-opacity="0.6" stroke="#212325"/>
</svg>
