<svg width="28" height="28" viewBox="0 0 28 28" fill="none" xmlns="http://www.w3.org/2000/svg">
<path fill-rule="evenodd" clip-rule="evenodd" d="M6.25484 4.04827C7.04176 3.68761 7.89002 3.5 8.75003 3.5C9.61005 3.5 10.4583 3.68761 11.2452 4.04827C12.0317 4.40875 12.7383 4.93338 13.3279 5.58586C13.6876 5.98386 14.3124 5.98386 14.6721 5.58586C15.8642 4.2668 17.5079 3.50001 19.25 3.50001C20.9921 3.50001 22.6358 4.2668 23.8279 5.58586C25.0165 6.90101 25.6667 8.66163 25.6667 10.4757C25.6667 12.2899 25.0165 14.0505 23.8279 15.3656L16.5967 23.3668C15.207 24.9045 12.793 24.9045 11.4033 23.3668L4.17215 15.3656C3.58267 14.7134 3.12053 13.9453 2.80703 13.1079C2.49353 12.2704 2.33334 11.3763 2.33334 10.4757C2.33334 9.57516 2.49353 8.6811 2.80703 7.84367C3.12053 7.00619 3.58267 6.2381 4.17215 5.58586C4.76183 4.93338 5.46836 4.40875 6.25484 4.04827Z" fill="#EC6A5E"/>
</svg>
